<?xml version="1.0" encoding="UTF-8" standalone="no"?>
<!DOCTYPE svg PUBLIC "-//W3C//DTD SVG 1.1//EN" "http://www.w3.org/Graphics/SVG/1.1/DTD/svg11.dtd">
<!-- Generated by Microsoft Visio, SVG Export plazasq.svg Page-1 -->
<svg xmlns="http://www.w3.org/2000/svg" xmlns:xlink="http://www.w3.org/1999/xlink" xmlns:ev="http://www.w3.org/2001/xml-events"
		xmlns:v="http://schemas.microsoft.com/visio/2003/SVGExtensions/" width="2.63889in" height="2.63889in" viewBox="0 0 190 190"
		xml:space="preserve" color-interpolation-filters="sRGB" class="st6">
	<v:documentProperties v:langID="1033" v:viewMarkup="false"/>

	<style type="text/css">
	<![CDATA[
		.st1 {fill:#789440;stroke:#503532;stroke-linecap:round;stroke-linejoin:round;stroke-width:10}
		.st2 {fill:none;stroke:#503532;stroke-linecap:round;stroke-linejoin:round;stroke-width:16}
		.st3 {fill:#31859b;stroke:none;stroke-linecap:round;stroke-linejoin:round;stroke-width:10}
		.st4 {fill:#ffffff;stroke:none;stroke-linecap:round;stroke-linejoin:round;stroke-width:10}
		.st5 {stroke:#503532;stroke-linecap:round;stroke-linejoin:round;stroke-width:12}
		.st6 {fill:none;fill-rule:evenodd;font-size:12px;overflow:visible;stroke-linecap:square;stroke-miterlimit:3}
	]]>
	</style>

	<g v:mID="0" v:index="1" v:groupContext="foregroundPage">
		<title>Page-1</title>
		<v:pageProperties v:drawingScale="1" v:pageScale="1" v:drawingUnits="19" v:shadowOffsetX="9" v:shadowOffsetY="-9"/>
		<g id="group9-1" transform="translate(5,-5)" v:mID="9" v:groupContext="group">
			<title>Sheet.9</title>
			<g id="shape1-2" v:mID="1" v:groupContext="shape">
				<title>Circle</title>
				<v:userDefs>
					<v:ud v:nameU="visVersion" v:val="VT0(15):26"/>
				</v:userDefs>
				<path d="M0 100 A90 90 0 0 1 180 100 A90 90 0 1 1 0 100 Z" class="st1"/>
			</g>
			<g id="shape2-4" v:mID="2" v:groupContext="shape" transform="translate(68.4,-68.4)">
				<title>Circle.2</title>
				<v:userDefs>
					<v:ud v:nameU="visVersion" v:val="VT0(15):26"/>
				</v:userDefs>
				<path d="M0 168.4 A21.6 21.6 0 0 1 43.2 168.4 A21.6 21.6 0 1 1 0 168.4 Z" class="st2"/>
			</g>
			<g id="shape3-6" v:mID="3" v:groupContext="shape" transform="translate(79.875,-79.875)">
				<title>Circle.3</title>
				<v:userDefs>
					<v:ud v:nameU="visVersion" v:val="VT0(15):26"/>
				</v:userDefs>
				<path d="M0 179.88 A10.125 10.125 0 1 1 20.25 179.88 A10.125 10.125 0 0 1 0 179.88 Z" class="st3"/>
			</g>
			<g id="shape4-8" v:mID="4" v:groupContext="shape" transform="translate(88.3125,-88.3125)">
				<title>Circle.4</title>
				<v:userDefs>
					<v:ud v:nameU="visVersion" v:val="VT0(15):26"/>
				</v:userDefs>
				<path d="M0 188.31 A1.6875 1.6875 0 0 1 3.37 188.31 A1.6875 1.6875 0 1 1 0 188.31 Z" class="st4"/>
			</g>
			<g id="shape5-10" v:mID="5" v:groupContext="shape" transform="translate(257.5,15.8275) rotate(90)">
				<title>Sheet.5</title>
				<path d="M0 190 L167.42 190" class="st5"/>
			</g>
			<g id="shape6-13" v:mID="6" v:groupContext="shape" transform="translate(302.5,15.8275) rotate(90)">
				<title>Sheet.6</title>
				<path d="M0 190 L167.42 190" class="st5"/>
			</g>
			<g id="shape7-16" v:mID="7" v:groupContext="shape" transform="translate(171,267.5) rotate(180)">
				<title>Sheet.7</title>
				<path d="M0 190 L167.42 190" class="st5"/>
			</g>
			<g id="shape8-19" v:mID="8" v:groupContext="shape" transform="translate(171,312.5) rotate(180)">
				<title>Sheet.8</title>
				<path d="M0 190 L167.42 190" class="st5"/>
			</g>
		</g>
	</g>
</svg>
